<svg width="500" height="500" viewBox="0 0 500 500" fill="none" xmlns="http://www.w3.org/2000/svg">
<path d="M408.5 249C408.5 331.011 341.57 397.5 259 397.5C176.43 397.5 109.5 331.011 109.5 249C109.5 166.989 176.43 100.5 259 100.5C341.57 100.5 408.5 166.989 408.5 249Z" stroke="black"/>
<path d="M186 185C194.028 177.474 203.548 171.033 210 162" stroke="black" stroke-width="3" stroke-linecap="round"/>
<path d="M180 159C186.264 169.805 194.14 179.354 202 189" stroke="black" stroke-width="3" stroke-linecap="round"/>
<path d="M304 195C313.887 179.829 325.535 165.973 337 152" stroke="black" stroke-width="3" stroke-linecap="round"/>
<path d="M308 166C319.035 179.643 330.078 193.269 341 207" stroke="black" stroke-width="3" stroke-linecap="round"/>
<rect x="0.05" y="0.05" width="499.9" height="499.9" stroke="black" stroke-width="0.1"/>
</svg>
