<svg width="500" height="500" viewBox="0 0 500 500" fill="none" xmlns="http://www.w3.org/2000/svg">
<path d="M408.5 249C408.5 331.011 341.57 397.5 259 397.5C176.43 397.5 109.5 331.011 109.5 249C109.5 166.989 176.43 100.5 259 100.5C341.57 100.5 408.5 166.989 408.5 249Z" stroke="black"/>
<path d="M201.778 179.667C202.032 177.375 197.979 178.829 197 179C197.822 182.288 196.41 182.332 199 181.222C200.476 180.59 201.473 182.412 201.778 179.667Z" stroke="black" stroke-width="3" stroke-linecap="round"/>
<path d="M314 180C310.544 169.632 315.044 183.219 311.056 182.222C308.752 181.646 311.813 178.906 310 178" stroke="black" stroke-width="3" stroke-linecap="round"/>
<rect x="0.05" y="0.05" width="499.9" height="499.9" stroke="black" stroke-width="0.1"/>
</svg>
