<svg width="503" height="500" viewBox="0 0 503 500" fill="none" xmlns="http://www.w3.org/2000/svg">
<path d="M408.5 249C408.5 331.011 341.57 397.5 259 397.5C176.43 397.5 109.5 331.011 109.5 249C109.5 166.989 176.43 100.5 259 100.5C341.57 100.5 408.5 166.989 408.5 249Z" stroke="black"/>
<path d="M186 126C149.957 143.645 114.879 163.101 82.4444 186.889C68.3741 197.208 55.6374 208.26 45 222" stroke="black" stroke-width="3" stroke-linecap="round"/>
<path d="M213 124C210.783 150.371 205.424 176.133 200 202" stroke="black" stroke-width="3" stroke-linecap="round"/>
<path d="M285 130C307.782 155.485 326.561 184.317 345 213" stroke="black" stroke-width="3" stroke-linecap="round"/>
<path d="M333 136C373.37 147.354 411.479 166.554 447.556 187.667C465.783 198.333 483.173 210.964 501 222" stroke="black" stroke-width="3" stroke-linecap="round"/>
<path d="M245 129V186" stroke="black" stroke-width="3" stroke-linecap="round"/>
<path d="M340 173C362.961 176.181 382.593 184.471 403.333 194.667C411.194 198.531 419.079 202.67 427 205" stroke="black" stroke-width="3" stroke-linecap="round"/>
<path d="M189 131C168.716 149.894 150.219 170.991 131.056 191C114.844 207.927 98.9489 224.958 84 243" stroke="black" stroke-width="3" stroke-linecap="round"/>
<path d="M329 128C370.93 131.618 419.047 131.526 457.556 151.333C471.749 158.634 485.082 167.407 497 178" stroke="black" stroke-width="3" stroke-linecap="round"/>
<rect x="0.05" y="0.05" width="499.9" height="499.9" stroke="black" stroke-width="0.1"/>
</svg>
