<svg width="500" height="500" viewBox="0 0 500 500" fill="none" xmlns="http://www.w3.org/2000/svg">
<path d="M408.5 249C408.5 331.011 341.57 397.5 259 397.5C176.43 397.5 109.5 331.011 109.5 249C109.5 166.989 176.43 100.5 259 100.5C341.57 100.5 408.5 166.989 408.5 249Z" stroke="black"/>
<path d="M176 139C157.504 123.624 176.68 97.7066 196.333 94.8889C208.07 93.2062 225.028 99.3738 219 114.444C217.744 117.584 215.196 120.166 212.556 122.278C211.157 123.397 201.959 128.226 205.222 119.833C208.654 111.01 218.194 104.929 226.222 101.5C243.019 94.3253 265.025 93.2077 280.222 105.222C284.269 108.421 297.952 132.095 282.944 133.556C266.982 135.109 275.439 102.177 278.333 97.8889C299.686 66.2554 343.403 108.347 350 131.222C350.894 134.322 351.134 137.738 350.444 140.889C349.032 147.346 344.348 141.53 343.667 139.778C340.37 131.296 340.589 115.996 351.556 112.611C376.449 104.928 386.171 149.349 377.556 164.778C371.139 176.268 360.815 171.477 355.444 162.944C350.827 155.607 352.789 152.906 352 146" stroke="black" stroke-width="3" stroke-linecap="round"/>
<rect x="0.05" y="0.05" width="499.9" height="499.9" stroke="black" stroke-width="0.1"/>
</svg>
