<svg width="500" height="500" viewBox="0 0 500 500" fill="none" xmlns="http://www.w3.org/2000/svg">
<path d="M408.5 249C408.5 331.011 341.57 397.5 259 397.5C176.43 397.5 109.5 331.011 109.5 249C109.5 166.989 176.43 100.5 259 100.5C341.57 100.5 408.5 166.989 408.5 249Z" stroke="black"/>
<path d="M161 324C168.855 308.682 180.858 292.131 197.667 286C206.302 282.85 216.217 282.811 224.889 285.722C236.259 289.539 241.522 298.498 247.944 307.833C253.782 316.318 260.579 325.523 271 328.778C283.755 332.762 296.678 327.577 307.833 321.833C319.833 315.655 328.449 308.465 335 297" stroke="black" stroke-width="3" stroke-linecap="round"/>
<rect x="0.05" y="0.05" width="499.9" height="499.9" stroke="black" stroke-width="0.1"/>
</svg>
