<svg width="500" height="500" viewBox="0 0 500 500" fill="none" xmlns="http://www.w3.org/2000/svg">
<path d="M408.5 249C408.5 331.011 341.57 397.5 259 397.5C176.43 397.5 109.5 331.011 109.5 249C109.5 166.989 176.43 100.5 259 100.5C341.57 100.5 408.5 166.989 408.5 249Z" stroke="black"/>
<path d="M228 268C230.77 263.084 251.593 227.695 254.778 230C262.588 235.652 267.785 245.811 270.222 254.889C271.504 259.661 273.018 264.247 275 268.778C276.86 273.029 278.653 274.87 272.556 275C258.979 275.29 245.154 274.288 232 271" stroke="black" stroke-width="3" stroke-linecap="round"/>
<rect x="0.05" y="0.05" width="499.9" height="499.9" stroke="black" stroke-width="0.1"/>
</svg>
