<svg width="500" height="500" viewBox="0 0 500 500" fill="none" xmlns="http://www.w3.org/2000/svg">
<path d="M408.5 249C408.5 331.011 341.57 397.5 259 397.5C176.43 397.5 109.5 331.011 109.5 249C109.5 166.989 176.43 100.5 259 100.5C341.57 100.5 408.5 166.989 408.5 249Z" stroke="black"/>
<path d="M228 286C226.543 281.973 223.758 275.514 226.944 271.611C232.674 264.592 247.276 263.567 255.111 266.556C261.564 269.017 268.09 276.11 265.444 283.444C262.457 291.727 252.341 292.911 244.778 292.778C235.79 292.619 230.943 286.943 225 281" stroke="black" stroke-width="3" stroke-linecap="round"/>
<rect x="0.05" y="0.05" width="499.9" height="499.9" stroke="black" stroke-width="0.1"/>
</svg>
